<?xml version="1.0" encoding="UTF-8" standalone="no"?><svg width="860" height="355" viewBox="0 0 860 355" fill="none" xmlns="http://www.w3.org/2000/svg">
<g clip-path="url(#clip0)">
<path d="M468.58 97.5088C451.555 97.5086 434.913 102.557 420.757 112.015C406.601 121.474 395.568 134.917 389.053 150.646C382.537 166.375 380.833 183.683 384.154 200.38C387.475 217.078 395.673 232.416 407.712 244.454C419.75 256.493 435.088 264.691 451.785 268.013C468.483 271.334 485.791 269.63 501.52 263.115C517.249 256.599 530.693 245.566 540.151 231.411C549.61 217.255 554.658 200.613 554.658 183.588C554.658 160.758 545.589 138.864 529.446 122.721C513.304 106.578 491.409 97.5091 468.58 97.5088V97.5088ZM468.58 245.316C456.371 245.316 444.436 241.696 434.284 234.913C424.132 228.131 416.22 218.49 411.547 207.21C406.875 195.93 405.652 183.518 408.034 171.544C410.416 159.569 416.295 148.57 424.928 139.936C433.561 131.303 444.56 125.424 456.535 123.042C468.51 120.66 480.922 121.883 492.201 126.555C503.481 131.227 513.122 139.139 519.905 149.291C526.688 159.443 530.308 171.378 530.308 183.587C530.308 199.958 523.804 215.659 512.228 227.235C500.652 238.811 484.951 245.315 468.58 245.316V245.316Z" fill="white"/>
<path d="M676.39 0V98.179C674.752 98.113 673.122 98.071 671.423 98.071C600.31 98.071 567.923 142.109 567.923 183.026C567.923 223.806 600.223 267.697 671.141 267.697C678.028 267.697 686.341 267.374 693.39 266.832L700.738 266.266V0H676.39ZM671.423 122.419C672.962 122.419 674.638 122.468 676.39 122.545V243.328C674.56 243.35 672.804 243.35 671.14 243.35C616.952 243.35 592.27 212.08 592.27 183.026C592.273 153.835 617.04 122.419 671.423 122.419Z" fill="white"/>
<path d="M859.746 176.281C859.746 129.165 831.246 97.5088 788.84 97.5088C758.758 97.5088 714.004 120.283 714.004 183.026C714.004 225.242 749.363 267.98 816.942 267.98C822.922 267.98 829.392 267.392 835.647 266.823L842.886 266.165V241.711L834.172 242.541C828.617 243.07 822.951 243.35 817.784 243.35C763.969 243.35 739.048 212.95 738.367 184.241H859.746V176.281ZM741.494 159.89C749.405 133.831 770.711 121.857 788.84 121.857C815.955 121.857 830.555 142.357 834.022 159.89H741.494Z" fill="white"/>
<path d="M310.849 135.903C323.456 127.679 340.628 122.419 362.697 122.419C367.847 122.419 373.467 122.691 379.397 123.229L387.515 123.963L389.137 99.6492L381.398 98.9492C374.925 98.3612 368.808 98.0742 362.698 98.0742C348.719 97.9429 334.807 100.036 321.485 104.274L310.849 135.903Z" fill="white"/>
<path d="M379.399 243.662C373.474 244.201 367.854 244.474 362.699 244.474C321.156 244.474 296.975 225.922 287.942 204.052L277.766 234.323C294.246 254.367 322.149 268.823 362.699 268.823C368.814 268.823 374.931 268.537 381.399 267.948L389.137 267.248L387.516 242.927L379.399 243.662Z" fill="white"/>
<path d="M176.773 47.439V85.363H274.15L210.05 276.532H249.958L326.965 47.439H176.773Z" fill="#3DB1AF"/>
<path d="M52.817 302.801L116.917 111.636H77.017L0 340.727H150.194V302.801H52.817Z" fill="white"/>
<path d="M142.014 33.2246L128.643 35.582L184.949 354.94L198.32 352.583L142.014 33.2246Z" fill="#BCBCBC"/>
<path d="M277.764 348.308L280.552 342.431C284.47 345.972 291.177 348.531 297.959 348.531C307.076 348.531 310.995 344.989 310.995 340.393C310.995 327.507 279.045 335.646 279.045 316.054C279.045 307.915 285.374 300.983 299.245 300.983C305.423 300.983 311.828 302.64 316.199 305.655L313.713 311.683C309.392 308.915 304.377 307.425 299.245 307.383C290.277 307.383 286.434 311.151 286.434 315.747C286.434 328.633 318.384 320.57 318.384 339.936C318.384 347.999 311.904 354.931 297.964 354.931C289.896 354.94 281.984 352.227 277.764 348.308Z" fill="#BCBCBC"/>
<path d="M345.359 327.964C345.359 312.516 357.259 300.987 373.465 300.987C389.515 300.987 401.421 312.44 401.421 327.964C401.421 343.488 389.515 354.94 373.465 354.94C357.264 354.94 345.359 343.411 345.359 327.964ZM393.886 327.964C393.886 316.284 385.145 307.693 373.465 307.693C361.635 307.693 352.894 316.284 352.894 327.964C352.894 339.644 361.635 348.234 373.465 348.234C385.145 348.234 393.886 339.643 393.886 327.964Z" fill="#BCBCBC"/>
<path d="M440.761 308.145V326.532H467.21V333.012H440.761V354.337H433.225V301.59H470.45V308.145H440.761Z" fill="#BCBCBC"/>
<path d="M511.822 308.145H493.738V301.59H537.368V308.145H519.282V354.337H511.822V308.145Z" fill="#BCBCBC"/>
<path d="M640.378 301.59L622.745 354.337H614.833L600.441 312.214L586.048 354.337H577.986L560.353 301.59H568.115L582.356 344.47L597.201 301.594H604.133L618.677 344.694L633.22 301.594L640.378 301.59Z" fill="#BCBCBC"/>
<path d="M704.585 341.15H676.553L670.753 354.337H662.992L686.873 301.59H694.333L718.295 354.337H710.383L704.585 341.15ZM701.948 335.122L690.573 309.276L679.193 335.122H701.948Z" fill="#BCBCBC"/>
<path d="M781.673 354.337L770.295 338.137C769.24 338.213 768.11 338.288 766.979 338.288H753.946V354.338H746.41V301.59H766.981C780.695 301.59 788.981 308.522 788.981 319.976C788.981 328.114 784.761 333.991 777.381 336.629L789.89 354.337H781.673ZM781.447 319.976C781.447 312.44 776.398 308.145 766.753 308.145H753.946V331.882H766.755C776.4 331.882 781.449 327.511 781.449 319.976H781.447Z" fill="#BCBCBC"/>
<path d="M859.746 347.782V354.337H821.466V301.59H858.69V308.145H829.002V324.345H855.451V330.751H829.002V347.781L859.746 347.782Z" fill="#BCBCBC"/>
</g>
<defs>
<clipPath id="clip0">
<rect width="859.746" height="354.94" fill="white"/>
</clipPath>
</defs>
</svg>
